# xmcd
#
# Track frame offsets:
#	150
#	20492
#	32250
#	44395
#	57768
#	70096
#	99598
#	108547
#	123661
#	136036
#	146159
#	162406
#	171464
#	183039
#	194897
#	206826
#	215808
#	226533
#
# Disc length: 3335 seconds
#
# Revision: 1
# Processed by: cddbd v1.5.2PL0 Copyright (c) Steve Scherf et al.
# Submitted via: CDex 1.50
#
DISCID=0a0d0512
DTITLE=Various Artist - Jazz Christmas Time
DYEAR=1900
DGENRE=Jazz
TTITLE0=Ray Anthony - Christmas Trumpet - We Wish You A Merry Christmas
TTITLE1=Frank Sinatra - Santa Claus is Coming to Town
TTITLE2=Louis Armstrong - White Christmas
TTITLE3=Doris Day - Winter Wonderland
TTITLE4=Billy May - Rudolph, the Red Nosed Reindeer
TTITLE5=Les Brown - the Nutcracker Suite
TTITLE6=Dean Martin - Let It Snow, Let It Snow, Let It Snow
TTITLE7=Matt Monro - Mary's Boy Child
TTITLE8=Kay Starr - the Man With A Bag
TTITLE9=Alma Cogan - Never Do A Tango With an Eskimo
TTITLE10=Bing Crosby - O Holy Night
TTITLE11=Ray Anthony - Christmas Kisses
TTITLE12=Al Caiola and Riz Ortolani - Holiday on Skis
TTITLE13=Leon Redbone - Toyland
TTITLE14=Julie London - I'd Like You for Christmas
TTITLE15=Peggy Lee - Happy Holiday
TTITLE16=Studio Orchestra - Cha Cha All the Way
TTITLE17=Hollyridge Strings, (The) - Jingle Bells
EXTD=
EXTT0=
EXTT1=
EXTT2=
EXTT3=
EXTT4=
EXTT5=
EXTT6=
EXTT7=
EXTT8=
EXTT9=
EXTT10=
EXTT11=
EXTT12=
EXTT13=
EXTT14=
EXTT15=
EXTT16=
EXTT17=
PLAYORDER=
